<svg width="256" height="256" viewBox="0 0 256 256" fill="none" xmlns="http://www.w3.org/2000/svg">
<rect width="256" height="256" rx="42" fill="#1F1B13"/>
<path d="M201.557 206V188.621C206.383 185.63 209.909 179.81 212.134 171.161C214.4 162.513 215.533 148.452 215.533 128.979V127.021C215.533 107.548 214.4 93.5146 212.134 84.9205C209.867 76.272 206.341 70.4247 201.557 67.3787V50C212.092 53.59 220.717 61.8033 227.432 74.6402C234.19 87.477 237.568 105.128 237.568 127.592V128.408C237.568 150.818 234.19 168.441 227.432 181.278C220.717 194.169 212.092 202.41 201.557 206Z" fill="#FFC105"/>
<path d="M54.9488 206C44.4559 202.41 35.8307 194.197 29.0732 181.36C22.3577 168.523 19 150.872 19 128.408V127.592C19 105.182 22.3577 87.5586 29.0732 74.7218C35.8307 61.8305 44.4559 53.59 54.9488 50V67.3787C50.164 70.4247 46.6384 76.272 44.3719 84.9205C42.1474 93.5146 41.0352 107.548 41.0352 127.021V128.979C41.0352 148.452 42.1474 162.485 44.3719 171.079C46.6384 179.728 50.164 185.575 54.9488 188.621V206Z" fill="#FFC105"/>
<path d="M71.7588 187.941L100.656 69.146H125.462L153.73 187.941H131.883L114.318 107.575C113.814 105.399 113.395 103.495 113.059 101.864C112.765 100.177 112.492 98.736 112.241 97.5393H112.052C111.8 98.736 111.506 100.15 111.17 101.782C110.834 103.414 110.457 105.345 110.037 107.575L93.2273 187.941H71.7588ZM88.3166 164.361L91.2757 145.433H133.52L136.794 164.361H88.3166Z" fill="#FFC105"/>
<path d="M158.703 187.941V69.146H181.179V187.941H158.703Z" fill="#FFC105"/>
</svg>
