<svg width="256" height="128" viewBox="0 0 256 128" fill="none" xmlns="http://www.w3.org/2000/svg">
<rect width="256" height="128" rx="64" fill="#1F1B13"/>
<path d="M181.922 108.625V98.6406C185.516 96.9219 188.141 93.5781 189.797 88.6094C191.484 83.6406 192.328 75.5625 192.328 64.375V63.25C192.328 52.0625 191.484 44 189.797 39.0625C188.109 34.0938 185.484 30.7344 181.922 28.9844V19C189.766 21.0625 196.188 25.7812 201.188 33.1562C206.219 40.5312 208.734 50.6719 208.734 63.5781V64.0469C208.734 76.9219 206.219 87.0469 201.188 94.4219C196.188 101.828 189.766 106.562 181.922 108.625Z" fill="#FFC105"/>
<path d="M72.7656 108.625C64.9531 106.562 58.5312 101.844 53.5 94.4688C48.5 87.0938 46 76.9531 46 64.0469V63.5781C46 50.7031 48.5 40.5781 53.5 33.2031C58.5312 25.7969 64.9531 21.0625 72.7656 19V28.9844C69.2031 30.7344 66.5781 34.0938 64.8906 39.0625C63.2344 44 62.4062 52.0625 62.4062 63.25V64.375C62.4062 75.5625 63.2344 83.625 64.8906 88.5625C66.5781 93.5312 69.2031 96.8906 72.7656 98.6406V108.625Z" fill="#FFC105"/>
<path d="M85.2812 98.25L106.797 30H125.266L146.312 98.25H130.047L116.969 52.0781C116.594 50.8281 116.281 49.7344 116.031 48.7969C115.812 47.8281 115.609 47 115.422 46.3125H115.281C115.094 47 114.875 47.8125 114.625 48.75C114.375 49.6875 114.094 50.7969 113.781 52.0781L101.266 98.25H85.2812ZM97.6094 84.7031L99.8125 73.8281H131.266L133.703 84.7031H97.6094Z" fill="#FFC105"/>
<path d="M150.016 98.25V30H166.75V98.25H150.016Z" fill="#FFC105"/>
</svg>
